<svg  data-name="Layer 1" xmlns="http://www.w3.org/2000/svg" viewBox="0 0 459.11 114.14">
    <defs>
        <style>
            .cls-1 {
                fill: #6d6e71;
            }

            .cls-2 {
                fill: none;
            }

            .cls-3 {
                fill: #be5722;
            }

            .cls-4,
            .cls-5 {
                isolation: isolate;
            }

            .cls-4 {
                font-size: 72px;
                font-family: PlayfairDisplay-Regular, Playfair Display;
            }

            .cls-5 {
                font-size: 36px;
                stroke: #000;
                stroke-miterlimit: 10;
                stroke-width: 0.25px;
                font-family: OpenSans-Bold, Open Sans;
                font-weight: 700;
            }
        </style>
    </defs>
    <path class="cls-1" d="M373.5,249.2" transform="translate(-181.18 -165.86)" />
    <rect class="cls-2" x="214.95" y="4.04" width="52.1" height="62.8" />
    <path class="cls-3"
        d="M406.73,178.9c-.6-.8-2-1.1-4-1.1-4.1,0-7,1-8.7,2.9s-2.5,4.7-2.5,8.3a16.45,16.45,0,0,0,.9,5.6,7.79,7.79,0,0,0,3.4,4c1.7,1,4.1,1.5,7.3,1.5h5.8v1.4h-6.5a24.17,24.17,0,0,1-8.7-1.3,15.55,15.55,0,0,1-5.4-3.3,12.21,12.21,0,0,1-2.8-4.3,14.07,14.07,0,0,1-.8-4.3,10.91,10.91,0,0,1,4-8.4c2.7-2.2,6.8-3.4,12.2-3.4.8,0,2.2,0,4.1.1s4,.1,6.1.1"
        transform="translate(-181.18 -165.86)" />
    <path class="cls-3"
        d="M407,201.5h-8a6.54,6.54,0,0,0-4.5,1.3,9.15,9.15,0,0,0-2.4,3.7,33.34,33.34,0,0,0-1.5,5.5l-1.6,7.4c-.7,3.2-1.7,5.3-3.1,6.4a7.51,7.51,0,0,1-4.8,1.6,8,8,0,0,1-4.7-1.2,13.76,13.76,0,0,1-3.2-3.5l1.1-.8a12,12,0,0,0,1.8,2,3.23,3.23,0,0,0,2.1.8,2.29,2.29,0,0,0,2.4-1.4,21.64,21.64,0,0,0,1.5-4.7l1.9-7.5a14.39,14.39,0,0,1,3.2-6.8c1.5-1.5,3.8-2.5,7.1-3,.9-.1,1.8-.3,2.8-.4s2.2-.2,3.7-.3,3.6-.2,6.3-.3Z"
        transform="translate(-181.18 -165.86)" /><text class="cls-4"
        transform="translate(216.41 61.49)">B</text>
    <rect class="cls-2" x="47.32" y="66.94" width="264.1" height="20.5" /><text class="cls-5"
        transform="translate(0.12 103.47)">
        <tspan xml:space="preserve">C H U R C H I L L H O U S E</tspan>
    </text><text x="-181.18" y="-165.86" />
</svg>