<?xml version="1.0" encoding="utf-8"?>
<!-- Generator: Adobe Illustrator 24.1.1, SVG Export Plug-In . SVG Version: 6.00 Build 0)  -->
<svg version="1.1" id="Layer_1" xmlns="http://www.w3.org/2000/svg" xmlns:xlink="http://www.w3.org/1999/xlink" x="0px" y="0px"
	 viewBox="0 0 792 612" style="enable-background:new 0 0 792 612;" xml:space="preserve">
<style type="text/css">
	.st0{fill:#6D6E71;}
	.st1{fill:none;}
	.st2{fill:#BE5722;}
	.st3{font-family:'PlayfairDisplay-Regular';}
	.st4{font-size:72px;}
	.st5{font-family:'OpenSans-Bold';}
	.st6{font-size:36px;}
	.st7{fill:none;stroke:#000000;stroke-width:0.25;stroke-miterlimit:10;}
</style>
<path class="st0" d="M373.5,249.2"/>
<rect x="396.1" y="169.9" class="st1" width="52.1" height="62.8"/>
<path class="st2" d="M406.7,178.9c-0.6-0.8-2-1.1-4-1.1c-4.1,0-7,1-8.7,2.9c-1.7,2-2.5,4.7-2.5,8.3c0,2.1,0.3,3.9,0.9,5.6
	c0.6,1.7,1.8,3,3.4,4c1.7,1,4.1,1.5,7.3,1.5h5.8v1.4h-6.5c-3.5,0-6.4-0.4-8.7-1.3c-2.3-0.9-4.1-2-5.4-3.3c-1.3-1.4-2.3-2.8-2.8-4.3
	s-0.8-3-0.8-4.3c0-3.3,1.4-6.1,4-8.4c2.7-2.2,6.8-3.4,12.2-3.4c0.8,0,2.2,0,4.1,0.1c1.9,0,4,0.1,6.1,0.1"/>
<g>
	<path class="st2" d="M407,201.5h-8c-2,0-3.5,0.4-4.5,1.3c-1,0.9-1.8,2.1-2.4,3.7c-0.6,1.6-1.1,3.4-1.5,5.5l-1.6,7.4
		c-0.7,3.2-1.7,5.3-3.1,6.4c-1.4,1.1-3,1.6-4.8,1.6c-2,0-3.6-0.4-4.7-1.2s-2.2-2-3.2-3.5l1.1-0.8c0.6,0.8,1.2,1.5,1.8,2
		c0.6,0.5,1.3,0.8,2.1,0.8c1.1,0.1,1.9-0.4,2.4-1.4s1-2.5,1.5-4.7l1.9-7.5c0.7-3.1,1.8-5.3,3.2-6.8c1.5-1.5,3.8-2.5,7.1-3
		c0.9-0.1,1.8-0.3,2.8-0.4c1-0.1,2.2-0.2,3.7-0.3s3.6-0.2,6.3-0.3L407,201.5z"/>
</g>
<text transform="matrix(1 0 0 1 397.5911 227.345)" class="st3 st4">B</text>
<rect x="228.5" y="232.8" class="st1" width="264.1" height="20.5"/>
<text transform="matrix(1 0 0 1 181.3055 269.3293)" class="st5 st6">C H U R C H I L L  H O U S E</text>
<text transform="matrix(1 0 0 1 181.3055 269.3293)" class="st7 st5 st6">C H U R C H I L L  H O U S E</text>
<rect x="516" y="241" class="st1" width="3" height="15"/>
</svg>
